<svg xmlns="http://www.w3.org/2000/svg" xmlns:xlink="http://www.w3.org/1999/xlink" width="303" height="303" viewBox="0 0 303 303"><path fill="currentColor" d="M150.556 13.594C156.317 13.7001 162.006 14.8956 167.322 17.1175C176.482 21.0228 184.804 26.9447 193.497 31.757C195.887 33.0803 198.238 34.5691 200.628 35.9177L237.219 56.689C254.069 66.2424 274.55 75.0138 276.297 96.976C276.936 105.003 276.892 112.715 276.908 120.756L276.933 155.252L276.948 184.241C276.955 191.975 277.101 200.961 275.913 208.608C274.34 216.497 269.652 224.609 263.314 229.507C256.067 235.107 248.186 239.058 240.379 243.554L205.472 263.457C199.021 267.109 192.465 270.744 186.068 274.472C175.196 280.807 166.35 287.038 153.483 288.325C147.647 288.345 143.368 287.728 137.964 285.313C128.869 281.246 119.866 275.598 111.24 270.58L76.6849 250.831C71.1239 247.627 65.5346 244.473 59.9174 241.368C53.1985 237.693 46.7323 234.307 40.6464 229.582C23.9065 216.637 26.9497 193.798 27.0353 175.182C27.1144 157.988 27.1622 140.705 27.0277 123.514C26.9493 113.48 26.3386 104.954 27.8951 94.8595C31.0677 74.2842 47.2776 67.7495 63.3327 58.5878L97.2213 39.3001C106.383 34.1205 115.415 28.7507 124.642 23.6718C133.83 18.615 139.908 14.5748 150.556 13.594ZM164.352 158.225C164.548 165.858 164.255 173.82 164.241 181.467L164.235 230.914C164.239 235.178 164.107 254.733 164.854 257.857C172.576 254.083 179.78 249.651 187.238 245.39L222.365 225.246C226.677 222.776 231.01 220.341 235.361 217.94C249.506 210.296 252.15 209.194 251.852 192.254C251.367 164.683 253.459 136.535 251.657 109.002L251.298 108.559C242.377 112.464 229.797 120.567 220.893 125.682L164.352 158.225ZM139.158 257.833C139.829 256.778 139.371 166.819 139.507 158.206C134.162 154.904 128.681 151.928 123.243 148.789L87.8582 128.466L71.2782 118.914C67.757 116.847 55.2111 108.916 52.1631 108.313C51.4371 121.574 51.999 134.599 52.0437 147.853C52.0557 151.431 52.0413 155.01 52.045 158.587L52.0451 184.002C52.0133 188.401 51.0422 204.94 54.1239 208.066C59.2648 213.28 69.7606 218.576 76.3988 222.289C81.5645 225.172 86.7121 228.088 91.8412 231.036C107.442 239.959 123.341 249.446 139.158 257.833ZM64.2462 86.6396C66.5395 87.4378 70.1778 89.6415 72.4192 90.9095C78.0826 94.1306 83.7078 97.4183 89.2937 100.772C109.014 112.379 129.152 123.417 148.875 135.039C149.691 135.52 151.453 136.394 152.34 136.413C152.723 136.225 153.272 135.974 153.627 135.77C173.658 124.567 193.468 112.625 213.509 101.438C221.03 97.2391 232.395 89.7014 239.975 86.5382C234.196 84.1775 225.676 78.6559 220.155 75.4302C205.014 66.5618 189.786 57.8412 174.474 49.2698C168.073 45.725 157.436 38.0385 149.992 38.5112C140.648 42.4056 131.854 48.033 123.039 53.0424L82.0193 76.3921C77.3541 79.0833 68.7389 84.5682 64.2462 86.6396Z"/></svg>